# xmcd CD database file
# Copyright (C) 1993-1998 Ti Kan
#
# Track frame offsets:
#	150
#	16750
#	32065
#	46710
#	59095
#	76705
#	88270
#	99630
#	113140
#	127795
#	146785
#	165490
#	177980
#	188315
#
# Disc length: 2656 seconds
#
# Revision: 3
# Processed by: cddbd v1.4b41PL1 Copyright (c) Steve Scherf et al.
# Submitted via: xmcd 2.2 PL1
#
DISCID=a80a5e0e
DTITLE=The Abeels
DYEAR=1900
DGENRE=
TTITLE0=Midnight Dream
TTITLE1=Wayfaring Stranger
TTITLE2=The 611
TTITLE3=The Holly Ball
TTITLE4=The House Of The Rising Sun
TTITLE5=I Need Jesus
TTITLE6=I Can Hear Kentucky Calling Me
TTITLE7=Keep Your Lamps Trimmed And Burning
TTITLE8=Fare Thee Well
TTITLE9=I Just Want To Thank You Lord
TTITLE10=Trail Of Tears
TTITLE11=The Light
TTITLE12=The River Of Jordan
TTITLE13=Flowerdew Waltz
EXTD=
EXTT0=
EXTT1=
EXTT2=
EXTT3=
EXTT4=
EXTT5=
EXTT6=
EXTT7=
EXTT8=
EXTT9=
EXTT10=
EXTT11=
EXTT12=
EXTT13=
PLAYORDER=
